#!OML:ASF H:\Terrain\Patient Classification 1\Terrain2\Thursday\justin.ASF
:FULLY-SPECIFIED
:DEGREES
1536
root 9.30641 18.2249 31.8518 -186.592 -66.269 -170.166
lowerback 5.64742 1.69116 1.06506
upperback 2.7336 2.20876 3.18604
thorax -0.436111 1.04169 2.54763
lowerneck -13.3454 -3.6933 -10.431
upperneck 36.5002 -6.97236 6.48451
head 15.7338 -4.14687 3.25346
rclavicle -1.83876e-014 -8.74653e-015
rhumerus -34.0045 -24.6298 -65.4581
rradius 21.8293
rwrist -6.76501
rhand -18.6303 9.97492
rfingers 7.12502
rthumb 7.66196 -19.8663
lclavicle -1.83876e-014 -8.74653e-015
lhumerus -33.8748 12.7853 68.7054
lradius 36.8419
lwrist 13.0244
lhand -25.0728 24.4012
lfingers 7.12502
lthumb 1.44127 54.3761
rfemur -18.9253 -9.80383 23.5558
rtibia 49.427
rfoot -8.44603 -1.42282
rtoes -36.8756
lfemur 4.76807 0.712108 -16.343
ltibia 10.282
lfoot -9.1594 -1.19391
ltoes -2.41797
1537
root 9.29948 18.2201 31.8501 -187.33 -65.4148 -169.217
lowerback 5.63634 1.56037 1.57194
upperback 2.59608 2.06114 3.32172
thorax -0.55236 0.969178 2.41035
lowerneck -13.3363 -3.49601 -10.9365
upperneck 36.7914 -6.773 6.90572
head 15.8962 -4.10807 3.56779
rclavicle 2.88238e-014 -9.54166e-015
rhumerus -34.3716 -24.418 -65.6397
rradius 22.175
rwrist -6.92609
rhand -13.4151 11.7934
rfingers 7.12502
rthumb 12.693 -17.8008
lclavicle 2.88238e-014 -9.54166e-015
lhumerus -34.4877 12.6032 68.753
lradius 37.0772
lwrist 13.5579
lhand -24.8809 24.7239
lfingers 7.12502
lthumb 1.62655 54.6975
rfemur -18.512 -10.1663 24.201
rtibia 48.2979
rfoot -9.26487 -1.43732
rtoes -37.383
lfemur 4.35705 0.384586 -15.9099
ltibia 11.243
lfoot -9.79097 -0.326388
ltoes -3.12017
1538
root 9.2911 18.2296 31.8405 -187.461 -64.4981 -168.923
lowerback 5.63818 1.56321 1.89186
upperback 2.49584 2.08568 3.27414
thorax -0.643748 0.984053 2.1787
lowerneck -13.177 -3.48674 -10.2304
upperneck 36.7691 -6.84198 6.44226
head 15.7968 -4.1103 3.22467
rclavicle 1.51076e-014 1.35174e-014
rhumerus -34.6696 -24.0905 -66.1563
rradius 22.4846
rwrist -7.70182
rhand -16.9087 7.12588
rfingers 7.12502
rthumb 9.32346 -22.6479
lclavicle 1.51076e-014 1.35174e-014
lhumerus -34.7224 12.3673 68.7619
lradius 36.9879
lwrist 13.7149
lhand -25.138 24.3298
lfingers 7.12502
lthumb 1.37829 54.3051
rfemur -18.3872 -10.2047 24.6238
rtibia 47.1516
rfoot -9.39919 -0.86249
rtoes -38.3723
lfemur 3.87431 0.23439 -15.7095
ltibia 12.3563
lfoot -10.3263 0.420837
ltoes -4.37996
1539
root 9.29105 18.2336 31.8318 -187.696 -63.4543 -168.526
lowerback 5.65218 1.53582 1.95595
upperback 2.4674 2.04901 3.44783
thorax -0.683663 0.962157 2.3236
lowerneck -13.1504 -3.41947 -10.184
upperneck 36.6501 -6.72195 6.356
head 15.7087 -4.067 3.19657
rclavicle -3.07122e-014 3.10104e-014
rhumerus -34.6272 -23.5906 -66.6056
rradius 22.7163
rwrist -8.05678
rhand -26.9942 16.5074
rfingers 7.12502
rthumb -0.414517 -13.4719
lclavicle -3.07122e-014 3.10104e-014
lhumerus -35.0275 12.5705 68.9021
lradius 36.846
lwrist 13.5922
lhand -25.3296 23.8484
lfingers 7.12502
lthumb 1.19327 53.8248
rfemur -18.1016 -9.86065 25.1305
rtibia 46.1782
rfoot -9.57613 -0.792148
rtoes -38.327
lfemur 3.51223 0.201071 -15.3962
ltibia 13.2156
lfoot -10.4915 1.11154
ltoes -3.27444
1540
root 9.29579 18.2299 31.8311 -188.45 -62.4254 -167.538
lowerback 5.66734 1.45101 2.33274
upperback 2.45504 1.94556 3.68902
thorax -0.696809 0.905452 2.36765
lowerneck -13.9211 -3.19434 -12.9062
upperneck 37.4618 -6.60856 8.88598
head 16.5506 -4.12337 4.85821
rclavicle -8.31914e-014 -1.74931e-014
rhumerus -34.6414 -23.3277 -66.901
rradius 23.0379
rwrist -7.59807
rhand -25.2536 14.1595
rfingers 7.12502
rthumb 1.26666 -15.8165
lclavicle -8.31914e-014 -1.74931e-014
lhumerus -35.4502 12.4067 69.1764
lradius 36.9689
lwrist 13.8015
lhand -24.489 24.1421
lfingers 7.12502
lthumb 2.00506 54.1124
rfemur -17.8264 -9.7318 25.9124
rtibia 45.3193
rfoot -9.6082 -0.79272
rtoes -37.7782
lfemur 3.1265 -0.0195822 -14.7905
ltibia 14.0574
lfoot -10.8753 1.80839
ltoes -0.405703
1541
root 9.29341 18.223 31.8241 -188.654 -61.4571 -167.167
lowerback 5.63613 1.47747 2.6949
upperback 2.43224 1.99614 3.64519
thorax -0.689518 0.931837 2.1169
lowerneck -13.5533 -3.3515 -11.4496
upperneck 37.0476 -6.85088 7.72782
head 16.1518 -4.15295 4.00688
rclavicle -5.05907e-014 -4.01545e-014
rhumerus -34.9625 -23.2528 -67.3592
rradius 23.5096
rwrist -7.76057
rhand -25.1258 13.0774
rfingers 7.12502
rthumb 1.39002 -16.8978
lclavicle -5.05907e-014 -4.01545e-014
lhumerus -35.6387 11.7967 69.3469
lradius 37.0466
lwrist 14.0657
lhand -23.3822 24.3899
lfingers 7.12502
lthumb 3.07404 54.3475
rfemur -17.5186 -9.73936 26.3937
rtibia 44.5314
rfoot -9.82683 -0.812641
rtoes -37.5208
lfemur 2.63889 -0.0397221 -14.4794
ltibia 15.1539
lfoot -11.2809 2.52776
ltoes -0.756147
1542
root 9.29272 18.2261 31.8053 -188.534 -60.4222 -167.092
lowerback 5.5668 1.56911 2.78462
upperback 2.36946 2.12316 3.6223
thorax -0.713561 0.996131 2.03613
lowerneck -13.1149 -3.44022 -10.0981
upperneck 36.6281 -6.99139 6.67191
head 15.7308 -4.1541 3.26439
rclavicle -8.44835e-015 -4.8901e-014
rhumerus -35.0927 -22.7546 -68.0405
rradius 23.5758
rwrist -7.87983
rhand -25.8051 13.2982
rfingers 7.12502
rthumb 0.733995 -16.6803
lclavicle -8.44835e-015 -4.8901e-014
lhumerus -35.8569 11.0502 69.621
lradius 37.0935
lwrist 14.502
lhand -24.6889 24.0106
lfingers 7.12502
lthumb 1.812 53.9826
rfemur -17.172 -9.50809 26.7985
rtibia 43.7513
rfoot -10.0946 -1.08069
rtoes -37.4745
lfemur 2.09909 0.198797 -14.2422
ltibia 16.271
lfoot -11.4171 3.18607
ltoes -3.26526
